<svg xmlns="http://www.w3.org/2000/svg" fill="none" viewBox="0 0 277 277">
  <g opacity=".15">
    <path fill="#191C1C" d="M95.151 91.288c0-3.226.476-5.922 1.428-8.09 1.005-2.168 2.459-4.574 4.362-7.218 1.798-2.538 3.12-4.733 3.966-6.583.899-1.904 1.349-4.204 1.349-6.9 0-3.12-.979-5.658-2.935-7.615-1.957-1.956-4.415-2.934-7.376-2.934-2.962 0-5.42 1.057-7.377 3.172-1.956 2.062-2.934 4.785-2.934 8.17h-1.587c.053-2.486.608-4.706 1.666-6.663 1.057-1.956 2.485-3.463 4.283-4.52 1.798-1.111 3.78-1.666 5.949-1.666 3.437 0 6.265 1.136 8.486 3.41 2.274 2.274 3.411 5.156 3.411 8.645 0 2.75-.45 5.103-1.349 7.06-.898 1.956-2.247 4.23-4.045 6.82-1.85 2.591-3.278 4.971-4.283 7.139-.951 2.115-1.427 4.706-1.427 7.773v6.107H95.15v-6.107Zm.952 15.784c-.581 0-1.057-.186-1.427-.556-.318-.317-.476-.766-.476-1.348 0-.582.158-1.031.475-1.348.37-.37.847-.556 1.428-.556.582 0 1.031.186 1.349.556.37.317.555.766.555 1.348 0 .582-.185 1.031-.556 1.348-.317.37-.766.556-1.348.556Z"/>
    <path fill="#3E4242" d="M215.387 208.334c.016-.008.033-.021.05-.03-.017.009-.036.018-.05.03Z"/>
    <path fill="#3E4242" d="M142.848 50.453c.759 1.487 1.6 2.933 2.432 4.38.533.927 1.064 1.862 1.687 2.727.562.78 1.029 1.6 1.39 2.483.453 1.11 1.298 1.967 1.877 3 .682 1.217.946 2.558 1.346 3.863a50.671 50.671 0 0 1 1.81 8.36c.35 2.683.298 5.372.016 8.061-.186 1.758-.175 3.529-.281 5.292-.103 1.707-.106 3.457-1.024 5.004-.409.685-.353 1.456-.497 2.196-.319 1.648-.985 3.197-1.515 4.785-.306.918-.722 1.802-.982 2.731-.419 1.492-1.229 2.807-1.776 4.239-1.09 2.849-2.746 5.408-4.22 8.051-.817 1.464-2.017 2.716-3.055 4.054-.453.582-.909 1.164-1.365 1.741-1.397 1.766-2.956 3.384-4.616 4.915-1.559 1.438-3.18 2.796-4.827 4.127-.894.723-1.896 1.267-2.894 1.827-1.559.875-3.068 1.837-4.623 2.717-1.237.701-2.54 1.287-3.761 2.013-1.286.764-2.659 1.328-4.001 1.965a6.133 6.133 0 0 1-1.304.469c-1.449.324-2.662 1.217-4.072 1.64-1.643.493-3.334.619-5.025.71-1.142.063-2.241.352-3.367.492-1.336.165-2.67.352-4.004.535-1.49.205-2.96-.161-4.411-.478-2.156-.471-4.332-.842-6.494-1.27-2.216-.439-4.45-.92-6.533-1.913-.852-.406-1.789-.656-2.65-1.068-2.136-1.02-4.344-1.886-6.44-2.998-1.618-.859-3.297-1.608-4.897-2.498-1.599-.891-3.211-1.789-4.528-3.096-.456-.454-1.075-.653-1.54-1.065-1.85-1.64-3.69-3.293-5.323-5.157-.123-.14-.23-.293-.345-.44l.018-.013c-.982-1.261-2.1-2.442-2.912-3.804-1.03-1.726-2.425-3.202-3.297-5.033-.298-.627-.778-1.179-1.177-1.764-1.407-2.061-2.581-4.24-3.632-6.501-1.15-2.475-1.808-5.089-2.536-7.697-.641-2.294-.894-4.645-1.358-6.962a52.667 52.667 0 0 1-.57-3.612c-.348-2.688-.156-5.347.292-8.017.332-1.974.659-3.949 1.048-5.908.57-2.88 1.404-5.686 2.67-8.35.279-.588.41-1.305.829-1.757.962-1.038 1.086-2.427 1.726-3.586.326-.59.584-1.3 1.08-1.693 1.131-.898 1.371-2.258 2.006-3.402.945-1.703 1.811-3.44 3-5.004 1.508-1.984 3.12-3.872 5.06-5.43 2.03-1.63 3.904-3.432 5.908-5.088 1.375-1.136 2.867-2.122 4.182-3.351.903-.844 2.07-1.435 3.184-2.054 1.861-1.034 3.826-1.846 5.7-2.852 2.875-1.544 5.988-2.338 9.194-2.895 1.775-.308 3.569-.588 5.298-1.19 1.013-.353 2.131-.395 3.223-.426 2.13-.058 4.26-.238 6.387-.182 1.705.043 3.41.272 5.11.508 2.286.315 4.393 1.382 6.699 1.524 1.614.099 3.049.779 4.55 1.233 1.853.56 3.752 1.027 5.47 1.955 2.239 1.212 4.612 2.176 6.718 3.637 2.179 1.513 4.208 3.207 6.172 4.987 1.292 1.169 2.607 2.32 3.75 3.636 1.251 1.443 2.779 2.639 3.841 4.244.614.924 1.657 1.433 2.179 2.453Zm-4.474 75.959c.162.09.32.258.087.435-.185.142-.373.422-.651.149-.38-.374-.771-.743-1.112-1.151-.277-.33.15-.406.289-.561.265-.293.486-.184.635.138.278.311.349.769.752.99Zm-1.71.037c.308.238.432.641.826.822.334.154.138.363-.043.479-.257.221-.39.288-.589-.068-.149-.266-.53-.398-.794-.607-.319-.253-.306-.527-.032-.819.354-.376.444.047.632.193Zm-1.571 1.965c-.13-.199-.571-.232-.438-.54.132-.303.375-.584.688-.765.09-.051.206-.063.23.04.152.635.77.66 1.229.913-.586.84-1.449 1.29-2.259 1.757-.302.174-.628-.32-.88-.609-.319-.368.03-.544.208-.747.298-.34.473-.054.655.161.06.07.129.136.205.188.221.152.494.471.719.209.29-.34-.225-.404-.357-.607Zm-1.01 1.687c-.342.634-.81.44-1.229.315-.175-.051-.401-.194-.389-.435.012-.241.17-.425.378-.546.264-.155.387.073.493.232.179.268.43.392.747.434Zm-1.429.852c.194.082.203.234.029.369-.506.395-.806-.092-1.133-.308-.256-.169.02-.347.13-.511.567-.387.646.309.974.45Zm-2.447 1.837c.154.155.568.242.245.557-.234.228-.535.512-.897.142-.13-.133-.252-.274-.391-.397-.477-.423-.479-.422.063-.803.379-.124.725-.439 1.083-.728.519-.42.953-.119 1.401.116.109.057.159.153.121.289a.853.853 0 0 1-1.381.408c-.105-.091-.204-.19-.319-.266-.097-.064-.23-.109-.323-.017-.125.123-.054.263.042.369.108.119.242.215.356.33Zm-1.283.874c.168.183.598.138.471.535-.027.082-.207.195-.271.171-.327-.121-.274-.406-.2-.706Zm-.703.087c-.218-.176-.402-.343-.31-.627.032-.098.19-.197.281-.091.175.202.213.443.029.718Zm-.241.489c.145.222.601.327.505.553-.148.344-.519.585-.877.754-.205.097-.4.113-.585-.152-.264-.378-.67-.629-1.127-.92l1.232-.81c.219-.144.383-.091.521.127.098.157.229.293.331.448Zm12.724-6.749c.699.84 1.395 1.684 2.111 2.509.242.28.534.517.819.756a.235.235 0 0 0 .363-.067c.071-.126-.061-.198-.155-.266-1.241-.916-1.907-2.336-2.976-3.403-.154-.153-.198-.333-.003-.476.237-.175.486-.429.802-.157 1.258 1.085 2.148 2.432 2.788 3.953.107.252-.087.398-.251.52-1.056.796-2.127 1.574-3.18 2.375-.461.35-.905.726-1.331 1.121-.291.271-.455.215-.732-.054-.912-.885-1.628-1.912-2.302-2.976-.122-.194-.205-.427-.442-.522-.114-.046-.235-.037-.324.053-.1.102-.062.206.026.304.873.969 1.455 2.165 2.4 3.079.067.065.112.168.19.202.588.252.463.527.081.89-.687.651-.784.668-1.345-.152-.55-.804-1.057-1.639-1.592-2.455-.114-.173-.261-.325-.398-.483-.157-.179-.355-.405-.568-.15-.202.241.124.347.251.481.792.837 1.245 1.906 1.944 2.808.211.272.395.565.67.757-.446.62-1.164.891-1.531 1.544-.123.219-.386.112-.56-.122a28.115 28.115 0 0 0-1.263-1.577c-.13-.151-.32-.464-.556-.202-.186.207.112.348.236.501.411.505.803 1.026 1.235 1.513.189.214.187.359-.02.516-.165.124-.258.337-.568.095-.493-.385-1.133-.571-1.552-1.076-.084-.102-.184-.148-.289-.032-.105.115-.029.217.046.307.358.43.806.765 1.286 1.025.436.236.339.377.049.639-.76.684-.753.694-1.498.069-.179-.149-.344-.316-.532-.451-.12-.086-.27-.095-.363.056-.077.128.002.226.106.29.453.278.674.836 1.233.98-.036.061-.049.108-.08.133-.913.718-.914.719-1.904-.012-.149-.109-.307-.294-.478-.109-.186.199.072.331.171.455.112.142.31.215.421.358.142.178.568.182.473.414a1.15 1.15 0 0 1-.779.638c-.244.053-.62.11-.767-.294-.083-.227-.187-.584-.512-.373-.289.188.019.444.083.673.082.293.757.421.423.705-.449.382-.494-.342-.753-.528a5.848 5.848 0 0 1-1.76-2.026c-.079-.15-.207-.305-.102-.445.416-.55-.023-.839-.366-1.066-.441-.293-.451-.534-.074-.85 2.727-2.284 5.227-4.838 8.176-6.86.978-.67 1.898-1.424 2.826-2.163.244-.194.326-.209.601.018.876.721 1.421 1.73 2.269 2.461.294.254.645.893.938.587.349-.363-.376-.509-.601-.756-.779-.858-1.308-1.94-2.312-2.596-.065-.043-.137-.177-.115-.236.208-.574.763-.775 1.212-1.084.305-.21.515.006.705.234Zm7.376 2.539c-.29.377-.443.868-.975 1.011-.224.061-.331.389-.005.52.522.211.21.377-.002.542-.292.226-.583.466-.908.633-.259.134-.603.222-.81-.088-.186-.279-.095-.522.166-.78.75-.747 1.752-1.133 2.534-1.838Zm-.149 1.429c.116-.517.191-.835.825-.847l-.825.847Zm-2.803 2.052c-.139.123-.291.23-.595.466-.137.145-.526.248-.855.454-.127.08-.255.256-.398.038-.107-.161-.159-.366-.018-.518.402-.43.784-.893 1.249-1.241.416-.309.392.361.701.446.234.064.025.256-.084.355Zm-3.09.412c.339-.363.657-.779 1.321-.939-.416.504-.852.737-1.321.939Zm.35 1.549c-.226 0-.375.585-.672.131-.145-.222-.415-.614.067-.8.309-.12.583-.684.989-.193.393.476-.119.61-.384.862Zm-1.158.837c-.226.224-.5.399-.76.602-.486-.568-.447-.988.162-1.314.183-.098.35-.273.54-.034.184.232.303.501.058.746Zm-1.414 1.209a3.584 3.584 0 0 1-1.347 1.061c-.234.11-.319-.33-.494-.501-.197-.192-.002-.336.142-.448.473-.37 1.025-.644 1.534-1.327.006.534.489.79.165 1.215Zm-2.449 2.094c-.334-.018-.478.779-.937.218-.448-.547-.204-.952.333-1.269.328-.193.56-.625 1.013-.068.566.697-.177.768-.409 1.119Zm-1.466.169c.237.406.633.835-.1 1.14-.476.618-.895.18-1.105-.166-.327-.54.405-.616.603-.945.121-.202.394-.383.602-.029Zm-1.817 2.671c-.168.146-.374.279-.519.027-.149-.257-.825-.127-.538-.653.349-.639 1.021-.912 1.443-.669.197.113.385.241.642.403-.371.322-.7.606-1.028.892Zm-1.885 1.537c-.4.324-.575-.09-.801-.255-.293-.214-.047-.377.101-.557.76-.922.756-.925 2.019-.217-.454.353-.891.686-1.319 1.029Zm-1.052.748c-.27.206-.502.347-.756-.025-.201-.296-.228-.488.075-.752.452-.395.612-.004.863.231.379.353-.13.37-.182.546Zm-1.061.867c-.342.271-.592.061-.841-.175-.273-.26-.042-.4.117-.559.259-.259.48-.241.636.073.184.219.388.423.088.661Zm-4.688-10.886c.148-.166.218.027.312.113.362.328.73.649 1.14 1.012-.471-.289-.895-.543-1.312-.807-.109-.069-.276-.165-.14-.318ZM85.38 27.018c.244-.061.504-.052.946-.092-.922.4-1.73.44-2.529.532.527-.148 1.051-.312 1.583-.44Zm138.993 198.031c.208.396-.051 2.034-.376 2.327-.203.184-.26.027-.333-.132-.631-1.385-1.668-2.505-2.56-3.705a17.06 17.06 0 0 0-1.493-1.713c-.184-.187-.308-.362-.143-.668.194-.357.024-.635-.391-.525-.341.09-.457-.074-.616-.282-.313-.406-.618-.817-.963-1.193-.371-.404-.184-.536.237-.617.376-.074.812-.074.879-.772 2.063 2.453 4.321 4.539 5.759 7.28ZM211.12 210.92c.203-.252.46-.105.809-.085-.229.263-.342.476-.656.343-.128-.055-.212-.183-.153-.258Zm-3.264-3.821c-.157-.192-.219-.346.035-.509.376-.243.856-.185 1.229-.458.115-.084.222.114.307.224.755.972 1.512 1.943 2.269 2.915l.137-.108c.785 1.008 1.548 2.036 2.365 3.018.434.522.051.832-.26 1.047-.337.235-.832.364-1.178-.02-.356-.394-.619-.871-.947-1.293-.172-.22-.105-.323.115-.409.328-.127.537-.354.336-.694-.219-.368-.612-.461-.966-.236-.706.445-.7-.337-.988-.561-.373-.294.034-.452.228-.615.446-.374.458-.714.028-.905-.234-.105-.338-.03-.273.262.073.331-.21.393-.363.521-.174.145-.341-.014-.462-.165-.538-.672-1.069-1.346-1.612-2.014Zm15.626 20.811c.264.583-.282.739-.494 1.011-.195.25-.355-.16-.486-.304-.515-.563-.923-1.266-1.531-1.686-.429-.296.375-1.075-.597-1.055-.42.008-.619-.693-.957-1.034-.294-.297-.198-.397.132-.508.37-.124.732-.278 1.094-.425.225-.091.337.031.457.192.233.316.481.622.822 1.06.653.716 1.097 1.733 1.56 2.749Zm-7.505-7.322c-.233-.37-.502-.718-.777-1.058-.205-.254-.171-.369.142-.485.841-.315 1.388-.216 1.817.299.463.508.831.956 1.249 1.352.307.291.169.404-.111.546-1.147.58-1.63.438-2.32-.654Zm-5.01-6.387c.062-.148.224-.135.362-.145.439-.03.877-.065 1.315-.094.242-.017.37.137.497.317.186.263.393.512.593.767l-.008.006c.212.273.413.557.641.816.344.389.108.541-.241.681-.657.262-1.171.265-1.618-.447a6.488 6.488 0 0 0-1.359-1.567c-.102-.084-.25-.173-.182-.334Zm10.343 13.543c.3.414.581.849.933 1.215.438.457.321.821-.009 1.274-.611.841-.591.857-1.201.065-.071-.091-.138-.187-.212-.276-.226-.274-.268-.457.166-.576.266-.075.583-.127.815-.45-.439-.181-.766.067-1.089.163-.321.095-.531.043-.729-.214-.393-.515-.725-1.083-1.229-1.51-.195-.163-.082-.278.09-.363.041-.019.089-.023.133-.04 1.436-.535 1.433-.533 2.332.712Zm-4.272-2.709c.548-.15 1.099-.362 1.656-.385.324-.014.38.553.633.637.849.954.85.961-.227 1.209-.328.075-.71.353-.991.115-.434-.372-.772-.856-1.145-1.298-.088-.106-.054-.242.074-.278Zm2.409 4.363c-.259.331-1.381.45-1.636.174-.485-.522-.917-1.092-1.375-1.64-.236-.281-.024-.335.189-.41 1.108-.394 1.35-.31 2.381.901-.014-.021.049.027.066.09.095.313.734.424.375.885Zm1.034 3.116c-.284.082-.465-.133-.561-.314-.142-.272.15-.264.308-.322.107-.041.222-.07.331-.108.134-.044.281-.088.253-.271-.031-.216-.2-.229-.372-.218a5.817 5.817 0 0 0-.414.045c-.217.032-.397.4-.612.184-.34-.344-.619-.752-.896-1.154-.094-.137.056-.256.166-.341.487-.372 1.309-.272 1.687.197.102.128.216.242.449.5-.028-.033.063.072.153.18.538.65.319 1.385-.492 1.622Zm-5.842-7.032c.18-.367.88-.17 1.345-.266.545-.11.595.571.977.768.15.309.601.548.497.85-.115.338-.619.176-.937.291-.586.215-.883-.154-1.165-.571-.249-.372-.89-.717-.717-1.072Zm.962-3.108c.311-.083.625-.16.942-.209.581-.087.59.569.93.718.15.242.267.444.398.633.56.795.531.696-.365.986-1.088.353-1.664-.196-2.263-.927-.746-.913-.769-.899.358-1.201Zm.753-3.921c-.244.012-.445-.029-.605.035-1.041.42-1.534-.246-1.995-.983-.046-.074-.11-.164-.102-.24.023-.245 1.309-.709 1.444-.501.37.568.984.955 1.258 1.689Zm-8.378-7.49c-.289-.289-.219-.401.137-.494.314-.08.634-.163.924-.303.479-.232.88-.313 1.055.223.133.169.22.252.273.354.097.193.499.215.356.515-.129.273-.428.305-.714.288-.189-.011-.433-.015-.419.233.015.22.253.125.404.128a.372.372 0 0 0 .137-.018c1.206-.484 1.576.519 2.125 1.196.285.352.143.489-.253.492-.024.001-.048-.003-.07.003-1.132.302-1.913-.128-2.546-1.081-.381-.572-.916-1.044-1.409-1.536Zm-4.931-9.276c-.249-.269-.224-.428.154-.504.133-.028.263-.081.39-.135 1.156-.483 1.156-.483 1.869.565.353.455.706.91 1.064 1.363.092.118.156.233.055.374-.26.366-1.572.467-1.883.134-.556-.594-1.095-1.202-1.649-1.797Zm-1.03-1.143c-.352-.4-.633-.863-1.068-1.188-.101-.075-.231-.184-.158-.347.062-.131.195-.084.305-.099.274-.039.555-.068.817-.15.944-.293.941-.302 1.582.54.753.991.685 1.125-.568 1.499-.4.119-.655.036-.91-.255Zm-2.772-3.472c-.081-.234.052-.29.208-.349.26-.1.525-.187.784-.291.159-.065.28-.18.25-.373-.021-.141-.088-.27-.233-.325-.195-.075-.259.059-.373.197-.606.734-.963.71-1.537-.063-.681-.918-.632-.839.309-1.426.726-.455 1.051-.236 1.42.378.249.415.589.776.89 1.16l-.086.067c.4.514.782 1.04 1.203 1.535.272.317.319.509-.164.59-.115.019-.226.059-.336.091-1.212.353-1.938-.022-2.335-1.191Zm18.086 25.039c.38-.288.914-.377 1.393-.53.265-.083.463.083.609.255.356.423.678.876 1.021 1.311.11.139.183.258.056.428-.362.484-1.633.51-1.992.032-.124-.168-.234-.348-.35-.521-.012-.018-.028-.037-.042-.055-.252-.317-.805-.835-.695-.92Zm-9.952-18.127c.305.377.627.74.955 1.126.016.244.582.347.217.715-.285.292-1.329.44-1.538.22-.459-.485-.89-.994-1.342-1.485-.194-.211-.192-.361.1-.445.378-.108.76-.203 1.136-.311.209-.061.342.02.472.18Zm11.166 13.727c.028.028.018.089.032.161-.258.072-.524.129-.781.217-.697.241-1.26.125-1.659-.546a2.579 2.579 0 0 0-.425-.548c-.339-.32-.394-.555.12-.735.142-.05.326-.174.213-.365-.108-.187-.291-.083-.424.004-.483.313-.774.124-1.054-.314-.285-.449-.636-.857-.973-1.273-.291-.358-.22-.523.243-.547.326-.016.634-.104.876-.349.174-.18.322-.117.458.064 1.077 1.449 2.098 2.94 3.374 4.231Zm1.363 15.533c-.363.274-.416-.166-.568-.353a.132.132 0 0 1-.031-.061c-.051-.241-.628-.347-.301-.612.337-.273.523.195.736.416.106.193.488.366.164.61Zm-1.869-1.914a2.54 2.54 0 0 1-.4-.473c-.091-.143-.383-.295-.089-.501.233-.163.38.021.515.184.132.16.255.326.41.525.022.261.664.425.313.723-.379.326-.528-.241-.749-.458Zm1.216 2.382c.088.271-.082.382-.199.54-.13.173-.234.107-.395-.009-.444-.315-.847.015-1.24.163-.504.191-.946.312-1.154-.302-.174-.195-.316-.349-.451-.508-.128-.153-.432-.212-.37-.455.07-.263.364-.235.587-.279.387-.075.78-.122 1.156-.232 1.04-.3 1.73.065 2.066 1.082Zm-2.126 1.327c.456-.154.882-.295 1.464-.489-.785 1.169-.847 1.19-1.464.489Zm-.09.659c.215.278.087.521-.108.747-.075.086-1.929.501-2.034.465-.206-.068-.183-.316-.335-.416-.472-.616-.472-.616.271-.865.441-.147.879-.301 1.321-.436.467-.146.662.216.885.505ZM138.288 43.84c-.87-.686-1.331-1.726-2.169-2.443-1.387-1.188-2.76-2.396-4.154-3.578a58.29 58.29 0 0 0-4.662-3.593c-2.001-1.374-4.062-2.623-6.293-3.624-2.313-1.039-4.72-1.811-7.088-2.68-1.619-.592-3.311-1.056-4.997-1.473-1.346-.333-2.741-.461-4.105-.729-2.86-.56-5.754-.761-8.657-.85-3.159-.094-6.322-.15-9.463.282-1.591.22-3.23.037-4.778.66-1.358.544-2.814.824-4.153 1.423-1.18.53-2.2 1.34-3.36 1.923-1.253.627-2.416 1.434-3.652 2.112-1.795.985-3.66 1.844-5.356 3.014-1.22.842-2.608 1.424-3.75 2.397-1.684 1.435-3.569 2.63-5.11 4.233-1.006 1.047-2.009 2.093-3.12 3.035-.882.751-1.785 1.492-2.391 2.517-.663 1.122-1.356 2.226-2.04 3.335-.28.45-.515.944-.969 1.256-.432.295-.688.687-.763 1.198-.162 1.105-.685 2.134-1.285 2.967-.96 1.332-1.624 2.807-2.474 4.185-.618 1.003-.792 2.187-1.3 3.236-1.105 2.286-2.164 4.601-2.845 7.048-.748 2.69-1.363 5.418-1.726 8.194-.29 2.21-.772 4.39-.752 6.644.023 2.689.49 5.31.985 7.931.742 3.92 1.51 7.835 2.923 11.593.74 1.967 1.763 3.789 2.68 5.666.822 1.681 1.997 3.134 2.973 4.716.599.97 1.163 1.978 1.887 2.851 1.156 1.391 1.977 3.009 3.158 4.388.78.91 1.453 1.933 2.317 2.766.969.933 1.675 2.08 2.896 2.84.98.611 1.835 1.508 2.803 2.228 1.434 1.067 2.845 2.148 4.379 3.077 2.346 1.422 4.795 2.664 7.263 3.828 2.537 1.197 5.103 2.359 7.728 3.377 2.204.856 4.468 1.497 6.777 1.857 2.442.381 4.845.897 7.245 1.451a10.67 10.67 0 0 0 4.153.135c2.177-.349 4.359-.705 6.553-.898 2.044-.177 4.08-.282 6.013-1.055.856-.342 1.673-.867 2.677-.59.156.043.38-.035.53-.125 1.218-.735 2.579-1.165 3.836-1.804 2.464-1.256 5.028-2.287 7.525-3.465.16-.075.423-.235.515-.096.384.572 1.09.543 1.577.912.287.218.361.405.079.667-.323.301-.632.617-.965.907-.233.202-.511.396-.436.735.08.36.405.481.741.547.479.096.869.306 1.089.777.505 1.083 1.192 2.029 2.119 2.804.654.545.633.782-.004 1.286-.165.13-.333.256-.497.388-.7.561-.757 1.217-.066 1.78.49.397.708.636.039 1.08-.282.186-.542.68-.399 1 .181.402.503-.122.784-.084.292.037.476-.146.667-.319.446-.409.866-.853 1.349-1.212 1.972-1.471 3.919-2.979 5.768-4.595 1.93-1.686 3.908-3.312 5.89-4.931 2.358-1.927 5.02-3.461 7.271-5.542.784-.725 1.506-.616 2.187.203.417.5.867.973 1.274 1.474 2.139 2.635 4.273 5.275 6.339 7.966 1.924 2.508 3.73 5.111 5.786 7.512 1.962 2.294 3.7 4.763 5.65 7.062.118.025.174.099.171.219.229.128.28.384.414.579.151-.001.183.08.147.209.183.22.395.424.459.722.134.079.232.181.215.353.254.302.526.589.758.906.981 1.345 2.11 2.588 2.84 4.109.29.247.536.525.649.9 1.068 1.196 1.934 2.532 2.745 3.908.378.418.779.817 1.031 1.332.361.174.562.504.785.813.263.144.398.392.517.652.113.028.169.101.178.214.385.347.698.752.918 1.225.36.32.606.729.874 1.121.238.098.342.311.449.523l1.175 1.589c.548.511.992 1.105 1.419 1.716.193.091.262.27.319.457l1.673 2.072c.105.086.234.155.316.26 1.037 1.333 2.067 2.671 3.1 4.007.122.004.189.068.198.19 1.26 1.322 2.331 2.792 3.354 4.3.11.033.167.108.181.222.399.339.661.784.925 1.227a.514.514 0 0 1 .268.324c.153.064.22.187.243.342l.226.357a.412.412 0 0 1 .235.344c.726.659 1.22 1.511 1.853 2.251 1.943 2.272 3.73 4.675 5.9 6.757 2.048 1.962 4.032 3.994 6.015 6.025 2.699 2.764 4.974 5.896 7.511 8.8 1.551 1.776 2.787 3.781 4.278 5.597.151.187.272.387.249.633-.062.597.244.885.795.907.409.016.443.199.48.559.076.701-.288 1.41.053 2.097.046.096.056.191-.057.216-.182.041-.322-.051-.398-.213-.876-1.86-2.378-3.242-3.713-4.734-2.003-2.237-3.93-4.527-5.659-6.98-1.625-2.305-3.4-4.481-5.257-6.601-.525-.6-1.096-1.161-1.609-1.773-.309-.37-.71-.655-.543-1.255.088-.31-.226-.471-.489-.453-.399.027-.543-.202-.74-.484-.766-1.11-1.668-2.1-2.592-3.088-.989-1.056-1.738-2.336-2.583-3.524-1.045-1.473-2.24-2.82-3.413-4.187-.105-.122-.187-.263-.28-.395-.167-.054-.234-.176-.239-.342-.15-.046-.235-.158-.298-.292-.684-.46-1.122-1.143-1.607-1.784-.167-.038-.24-.154-.263-.313-.817-.636-1.348-1.536-2.079-2.254a67.66 67.66 0 0 1-4.482-4.885c-.836-.998-1.583-2.069-2.399-3.083-1.908-2.373-3.988-4.602-5.889-6.985-1.667-2.09-3.475-4.068-5.135-6.162-2.039-2.571-3.966-5.23-5.984-7.817-1.357-1.741-2.888-3.341-4.216-5.108-1.916-2.549-3.866-5.071-5.994-7.449-.544-.608-1.059-1.234-1.502-1.925a37.093 37.093 0 0 0-1.829-2.633c-1.177-1.527-2.371-3.038-3.338-4.715-.231-.401-.525-.766-.799-1.141-.087-.118-.219-.181-.367-.111-.152.072-.098.189-.04.292.425.742.798 1.523 1.292 2.216.878 1.227 1.846 2.389 2.746 3.601.792 1.065 1.497 2.196 2.317 3.235 2.99 3.78 5.952 7.583 9.043 11.277 2.449 2.925 4.78 5.941 7.126 8.943 2.305 2.947 4.806 5.728 7.093 8.688 1.774 2.292 3.689 4.475 5.557 6.692 1.407 1.67 2.668 3.454 4.228 5.005 2.885 2.873 5.488 6.004 8.14 9.092.532.62.537.792-.191 1.103-.407.176-.998.543-1.38.042-1.368-1.798-2.803-3.537-4.266-5.256-1.856-2.179-3.666-4.398-5.542-6.56-1.296-1.491-2.636-2.948-3.764-4.569-1.694-2.433-3.734-4.57-5.662-6.801-1.261-1.462-2.568-2.884-3.758-4.406-1.879-2.403-3.697-4.854-5.648-7.198-1.202-1.444-2.409-2.883-3.545-4.383-2.034-2.687-4.399-5.108-6.36-7.852-1.286-1.802-2.689-3.51-4.123-5.192-.137-.161-.292-.453-.555-.223-.2.176-.046.389.105.545 1.535 1.599 2.821 3.395 4.197 5.123 1.628 2.047 3.368 4.007 5.011 6.045 1.399 1.732 2.71 3.537 4.097 5.278 2.073 2.6 4.173 5.176 6.273 7.752 1.175 1.44 2.306 2.925 3.58 4.274 1.435 1.519 2.749 3.14 4.106 4.723 1.224 1.428 2.257 3.018 3.425 4.495.935 1.179 2.062 2.202 3.015 3.352a935.701 935.701 0 0 0 4.452 5.323 270.31 270.31 0 0 1 4.192 5.123c.23.284.672.677-.178.725-.122.007-.224.077-.244.209-.026.186.118.257.251.273.229.027.464.035.693.011.305-.031.477.042.675.327.825 1.204 1.65 2.416 2.58 3.538 1.255 1.518 2.609 2.955 3.919 4.429.204.228.508.431.119.777-.133.119-.071.378.145.332.993-.209 1.311.653 1.804 1.157.685.703.634.753-.172 1.205.272.205.574.209.876.152.249-.046.447-.011.613.202.528.679 1.038 1.374 1.609 2.015.4.451.065.658-.238.755-.302.099-.599.183-.896.312a.575.575 0 0 1-.683-.183c-2.256-2.78-4.812-5.309-6.872-8.25-.469-.667-.88-1.383-1.417-1.988-1.229-1.389-2.506-2.735-3.747-4.116-1.505-1.676-3.066-3.299-4.393-5.123-.515-.708-.667-1.619-1.303-2.277-.432-.449-.789-.979-1.141-1.499-1.421-2.105-3.12-3.991-4.72-5.954-1.35-1.653-2.839-3.201-3.958-5.03-.549-.896-1.071-1.798-1.817-2.553a30.304 30.304 0 0 1-2.523-2.867c-.684-.887-1.45-1.713-2.179-2.563-.186.144-.111.259-.05.343.739 1.017 1.458 2.047 2.234 3.036 1.06 1.355 2.413 2.459 3.372 3.904.59.891 1.113 1.837 1.78 2.665a200.405 200.405 0 0 0 5.258 6.301c1.337 1.53 2.374 3.274 3.642 4.851.534.665.763 1.515 1.298 2.212 1.676 2.18 3.611 4.13 5.461 6.147 2.397 2.613 4.343 5.574 6.706 8.206 1.179 1.311 2.258 2.716 3.445 4.026 1.122 1.238 2.21 2.508 3.317 3.76.175.2.361.349.053.624-.22.198-.058.353.187.293.475-.116.723.139.987.47.521.656 1.072 1.286 1.619 1.919.18.208.276.376-.043.538-.101.05-.214.137-.172.27.061.185.232.14.352.095.475-.173.73.085.972.438.244.354.75.634.269 1.152.436.139.925.173 1.161.68.275.599.704 1.092 1.15 1.571.261.28.408.544-.175.625a17.67 17.67 0 0 0-1.56.303c-.214.048-.304-.089-.395-.209-1.478-1.97-3.113-3.82-4.475-5.878-1.259-1.902-2.488-3.827-3.946-5.589-1.098-1.325-2.314-2.552-3.393-3.879-3.103-3.812-6.338-7.508-9.48-11.284-.998-1.198-1.965-2.421-2.948-3.633-.118-.145-.251-.338-.443-.139-.162.166.037.288.135.405.993 1.203 1.982 2.413 2.99 3.606 2.085 2.472 4.19 4.927 6.27 7.405 1.39 1.657 2.691 3.391 4.135 5 1.575 1.753 3.11 3.536 4.439 5.476 1.198 1.747 2.209 3.623 3.568 5.256 1.545 1.859 2.86 3.903 4.587 5.612.115.114.316.261.127.468-.185.207-1.349.165-1.527-.059-1.858-2.321-3.738-4.626-5.561-6.976-2.398-3.092-4.684-6.273-7.27-9.212-2.308-2.623-4.598-5.253-6.558-8.155-.192-.282-.39-.586-.704-.768-.122-.071-.26-.143-.378-.012-.13.146 0 .252.089.356.312.369.637.729.939 1.106 1.396 1.736 2.764 3.495 4.184 5.211 1.259 1.522 2.634 2.949 3.852 4.502 2.396 3.055 4.7 6.182 7.076 9.254 1.698 2.194 3.472 4.33 5.156 6.533.399.521.634 1.134 1.212 1.555.436.318.713.852 1.055 1.295.101.131.35.255.107.448-.189.151-.336.003-.475-.135-.395-.39-.831-.743-1.195-1.16a293.777 293.777 0 0 1-4.985-5.834c-2.587-3.116-5.263-6.151-7.977-9.153-1.435-1.587-2.958-3.098-4.151-4.891a1.027 1.027 0 0 0-.129-.166c-.122-.12-.269-.223-.422-.077-.138.129-.022.241.069.353.336.415.639.86.995 1.255 1.742 1.932 3.515 3.835 5.243 5.778 2.388 2.687 4.655 5.477 6.988 8.212 1.603 1.878 3.075 3.869 4.838 5.607.317.312.209.461-.163.554-.428.107-.856.218-1.286.327-.189.049-.487.026-.387.342.079.252.339.207.543.158.565-.136 1.13-.274 1.691-.432.27-.076.459-.091.639.2.247.397.868.768.698 1.16-.167.391-.868.301-1.342.398-.18.037-.392-.02-.551.054-.811.367-1.252-.151-1.71-.668-2.339-2.633-4.34-5.533-6.55-8.267-1.581-1.954-3.099-3.96-4.642-5.943-.26-.332-.534-.648-.882-.889-.129-.087-.269-.114-.364.034-.082.132.05.201.129.279.263.263.558.501.786.793a6089.51 6089.51 0 0 1 9.178 11.767c1.175 1.511 2.458 2.924 3.738 4.342.274.219.67.504.616.78-.065.33-.582.252-.898.36-.262.089-.534.172-.82.116-.533.295-.926.204-1.288-.325a23.585 23.585 0 0 0-1.546-1.979 293.865 293.865 0 0 1-8.213-10.059c-.208-.266-.396-.908-.676-.698-.257.192.189.717.429 1.019 1.1 1.382 2.23 2.741 3.355 4.105 2.101 2.55 4.206 5.096 6.31 7.644.262.318.558.648-.207.644-.156-.001-.357-.017-.342.231.012.184.136.284.323.306.308.039.603-.02.894-.115.619.06.725.65 1.021 1.028.104.13-.162.255-.305.283-.373.07-.749.191-1.134.067-.412.222-.703.146-1.002-.253-.613-.814-1.292-1.576-1.934-2.368-2.382-2.941-4.758-5.885-7.137-8.827-.111-.14-.223-.377-.427-.183-.169.158.051.269.148.388 1.101 1.343 2.206 2.684 3.297 4.036 1.797 2.223 3.585 4.453 5.371 6.683.154.191.483.328.396.609-.088.291-.396.122-.613.145-.144.016-.319.063-.306.221.017.227.086.457.176.667.053.122.193.075.305.017 1.093-.565 1.093-.565 1.644.467.159.006.335.056.422-.139.078-.181-.094-.226-.187-.317-.127-.128-.245-.266-.429-.467 1.028-.339 2.029-.378 3.114-.59-.863.936-1.863 1.449-2.968 1.792-.506.175-1.006.365-1.519.517-.202.059-.413.149-.617-.114-.656-.84-1.368-1.638-2.031-2.475-1.704-2.151-3.519-4.207-5.333-6.264-.093-.105-.195-.333-.376-.144-.123.13.046.245.133.346 1.434 1.68 2.88 3.349 4.302 5.041a139.204 139.204 0 0 1 2.664 3.312c.153.193.419.439-.048.641-.799.347-1.984.061-2.534-.62-1.43-1.776-2.891-3.525-4.168-5.418-.086-.128-.142-.448-.376-.274-.193.144.028.338.127.479.438.627.871 1.26 1.339 1.867.947 1.225 1.918 2.435 2.876 3.653.102.13.309.276.029.441-.478.28-1.636.065-1.97-.378a479.24 479.24 0 0 1-2.127-2.852c-.407-.546-.843-1.057-1.487-1.471.099.549.562.725.797 1.075.682 1.021 1.43 1.996 2.126 3.008.127.181.547.32.318.58-.218.25-.348-.195-.556-.239a1.47 1.47 0 0 0-.481-.029c-.218.022-.347-.078-.465-.241-.434-.6-.869-1.202-1.32-1.792-1.452-1.903-2.786-3.915-4.394-5.676-2.606-2.859-4.994-5.895-7.491-8.841-1.715-2.023-3.27-4.18-5.12-6.095-1.157-1.198-2.244-2.465-3.363-3.702l-.166-.251c-.291-.205-.481-.489-.622-.81l-.001-.006c-.28-.098-.397-.354-.553-.572-.22-.058-.289-.239-.356-.423l-.641-.721c-.128-.04-.196-.126-.198-.261a38.515 38.515 0 0 0-.329-.399c-.245-.292-.564-.535-.635-.942-.223-.107-.348-.307-.477-.5-1.359-2.048-3.078-3.825-4.392-5.911-.964-1.529-2.353-2.718-3.459-4.136-.147-.064-.26-.152-.259-.332-.828-1.069-1.653-2.14-2.479-3.211-.496-.386-.844-.883-1.116-1.44-.335-.208-.461-.589-.718-.86a465.09 465.09 0 0 1-.943-1.04c-.559-.255-.71-.835-1.026-1.284-1.13-1.611-2.309-3.18-3.674-4.605-.132-.028-.2-.112-.216-.244-.903-1.478-1.99-2.832-3.078-4.163-1.097-1.342-2.121-2.747-3.31-4.022-2.136-2.295-3.973-4.846-6.12-7.144-1.496-1.603-2.851-3.35-4.248-5.044-1.662-2.018-3.594-3.809-5.044-6.006-.393-.594-.996-1.048-1.389-1.642-1.187-1.798-2.523-3.479-3.869-5.155-.899-1.119-1.825-2.216-2.74-3.323-.231-.278-.356-.949-.783-.644-.34.242.172.691.401.957 1.413 1.648 2.746 3.359 4.106 5.051 1.337 1.663 2.451 3.488 3.877 5.091 1.088 1.223 2.044 2.564 3.156 3.779 1.553 1.695 3.04 3.451 4.55 5.187.489.56.825 1.231 1.354 1.771 1.252 1.28 2.471 2.591 3.574 4.008 1.223 1.572 2.559 3.051 3.8 4.612 1.051 1.32 2.159 2.593 3.1 3.999.11.027.176.095.198.207 1.226 1.279 1.975 2.933 3.287 4.15.542.503 1.071 1.065 1.444 1.697 1.304 2.198 3.08 4.023 4.614 6.038 2.732 3.59 5.871 6.856 8.443 10.576.673.976 1.517 1.839 2.161 2.832 1.639 2.535 3.688 4.733 5.698 6.953 1.842 2.036 3.803 3.962 5.452 6.173.571.763 1.191 1.49 1.807 2.219 2.537 3.002 4.969 6.094 7.598 9.022 1.693 1.885 3.219 3.923 4.747 5.95.443.587 1.107 1.127.932 2.076-.076.414.368.591.788.592.348.002.743-.097 1.034.034 1.05.468 2.18.346 3.265.536.324.056.647-.016.963-.119 2.072-.687 4.125-1.459 6.05-2.473 1.865-.982 3.657-2.124 5.162-3.646.588-.595 1.147-1.228 1.794-1.75 1.572-1.264 2.874-2.71 3.507-4.67.393-1.217.729-2.458.822-3.728.072-1.022-.548-2.013-.277-3.076.013-.056-.028-.139-.065-.196-.254-.389-.471-.814-.782-1.153-1.365-1.493-2.667-3.031-3.75-4.751-.531-.842-1.177-1.619-1.817-2.386-1.46-1.747-2.949-3.47-4.421-5.206-.085-.102-.127-.24-.185-.363-.008-.017.004-.049.017-.065a.012.012 0 0 1 .007-.007c-.006.002-.015.008-.021.008-.396-.012-.461-.403-.683-.615-1.091-1.043-1.845-2.396-3.071-3.323-.349-.264-.657-.588-.961-.91-.891-.943-1.756-1.909-2.656-2.846-1.708-1.777-3.595-3.401-5.075-5.375-1.713-2.284-3.652-4.378-5.332-6.694-1.852-2.552-3.737-5.091-5.796-7.498-1.644-1.918-3.253-3.872-4.767-5.903-1.218-1.634-2.555-3.178-3.804-4.792-1.051-1.359-1.995-2.8-3.082-4.129-1.281-1.567-2.524-3.162-3.625-4.861a77.356 77.356 0 0 0-4.688-6.487c-.916-1.143-1.849-2.273-2.714-3.454-1.985-2.717-4.343-5.131-6.258-7.905-1.541-2.232-3.258-4.339-5.007-6.417-1.908-2.265-3.819-4.529-5.673-6.838-.585-.727-1.291-.798-2.039-.619-.463.111-.686.078-.981-.307-.846-1.103-1.698-1.176-2.804-.324-.111.085-.232.158-.349.232-.166.104-.316.091-.406-.095-.409-.846-1.19-1.388-1.73-2.132-.503-.693-1.076-1.346-1.755-1.883-.559-.442-1.568-.338-2.03.176-.579.644-.806.628-1.284-.103-.165-.252-.312-.516-.475-.77-.079-.122-.144-.221-.035-.372.421-.581.826-1.175 1.244-1.758 1.582-2.201 3.27-4.332 4.721-6.615 1.705-2.679 3.165-5.502 4.442-8.428.808-1.849 1.655-3.677 2.26-5.599.65-2.062 1.315-4.119 1.924-6.193.698-2.376 1.37-4.753 1.37-7.236-.001-2.657.241-5.296.379-7.943.063-1.204.185-2.408-.009-3.615-.214-1.33-.421-2.66-.586-3.995-.305-2.495-.754-4.982-1.504-7.358-.708-2.236-1.722-4.39-2.839-6.492a65.474 65.474 0 0 0-6.245-9.562c-1.543-1.972-3.166-3.9-5.153-5.465Z"/>
    <path fill="#3E4242" d="M147.204 154.584c-.133.118-.027.246.054.364.333.5.624 1.035 1.002 1.499 1.201 1.473 2.434 2.918 3.653 4.376 1.335 1.596 2.605 3.252 4.017 4.774 1.253 1.349 2.383 2.787 3.516 4.226 1.299 1.652 2.542 3.348 3.783 5.044 1.427 1.949 3.211 3.593 4.657 5.521 1.511 2.018 3.055 4.02 4.674 5.943 1.729 2.055 3.111 4.381 4.91 6.134.258.331.389.525.547.694.107.115.15.417.405.228.231-.171.033-.327-.077-.462-.964-1.19-1.939-2.37-2.904-3.557a186.984 186.984 0 0 1-3.251-4.095c-1.457-1.898-2.777-3.907-4.376-5.686-1.259-1.399-2.477-2.835-3.719-4.246-1.162-1.321-2.073-2.862-3.145-4.266-1.579-2.071-3.198-4.109-4.979-6.015-1.33-1.422-2.626-2.881-3.78-4.449-1.485-2.02-3.317-3.764-4.654-5.9-.069-.109-.181-.262-.333-.127ZM164.818 174.552c-.198.172.084.377.223.507 1.185 1.092 2.071 2.441 3.128 3.643 2.167 2.465 4.185 5.06 6.243 7.619.925 1.148 1.946 2.224 2.738 3.476.362.251.563.63.79.987.296.068.363.308.42.554.063.072.127.143.192.214.305.117.531.32.669.617.676-.188-.145-.419.017-.623-.178-.184-.372-.353-.529-.551-1.491-1.873-2.967-3.759-4.468-5.623-.74-.92-1.571-1.777-2.287-2.704-1.145-1.48-2.388-2.875-3.573-4.318-.984-1.198-2.034-2.342-3.075-3.49-.122-.135-.206-.55-.488-.308ZM146.615 156.765c1.012 1.533 2.263 2.88 3.385 4.325.147.189.212.667.565.413.281-.202-.107-.424-.209-.631-.042-.082-.111-.15-.172-.221-2.361-2.746-4.381-5.751-6.519-8.664-1.389-1.892-2.747-3.806-4.281-5.586-.226-.262-.42-.593-.864-.606.614.306.681 1.023 1.081 1.491 1.233 1.443 2.489 2.871 3.482 4.493.522.852 1.26 1.533 1.776 2.374.55.897 1.178 1.737 1.756 2.612ZM181.48 194.846c.147.099.295.196.291.404.133.126.395.155.326.434.058.083.116.167.176.25.155-.019.209.054.185.201l.168.226c.26.151.429.375.53.655 1.094.987 1.87 2.245 2.84 3.339l.227-.059c-.754-1.072-1.615-2.056-2.452-3.061-.694-.834-1.457-1.614-1.986-2.575-.151-.019-.249.047-.305.186ZM137.148 143.822c.026.485.372.722.706.967-.084-.447-.35-.744-.706-.967ZM138.106 51.472c1.591 2.325 2.969 4.774 4.458 7.158.576.922.882 1.983 1.43 2.93 1.806 3.115 2.376 6.626 3.142 10.069.257 1.156.598 2.29.85 3.45.555 2.557.673 5.14.792 7.742.137 3.016-.343 5.957-.705 8.916-.109.886-.467 1.74-.685 2.615-.089.358-.089.735-.162 1.097-.493 2.478-1.355 4.842-2.32 7.161-.704 1.696-1.295 3.444-2.168 5.067a234.848 234.848 0 0 1-2.865 5.173c-.297.521-.714.971-1.061 1.466-1.266 1.799-2.51 3.616-3.958 5.279-1.053 1.212-2.125 2.404-3.399 3.391a115.09 115.09 0 0 1-5.275 4.57c-1.124.914-2.38 1.626-3.558 2.456-2.972 2.094-6.144 3.855-9.549 5.115-1.462.542-3.084.645-4.625.982-2.407.528-4.825.891-7.3.92-2.208.025-4.391-.111-6.593-.301a278.499 278.499 0 0 0-7.436-.565c-2.947-.177-5.869-.582-8.728-1.381-1.644-.459-3.15-1.221-4.694-1.912-1.314-.589-2.673-1.078-3.986-1.671-1.996-.901-3.817-2.094-5.625-3.333-2.911-1.995-5.23-4.546-7.464-7.236-1.91-2.299-3.576-4.765-5.162-7.275-2.083-3.296-4.158-6.639-5.194-10.448-.768-2.823-1.807-5.557-2.54-8.392-.577-2.233-.64-4.502-.765-6.764-.17-3.083-.225-6.17.041-9.26.28-3.237 1.035-6.363 1.816-9.504.743-2.983 1.959-5.755 3.195-8.542 1.345-3.027 3.283-5.684 5.337-8.215 2.01-2.477 4.161-4.893 6.62-6.94 1.161-.967 2.281-2.007 3.508-2.915.828-.612 1.558-1.374 2.419-1.971 1.99-1.382 3.965-2.78 6.067-3.99 2.254-1.3 4.57-2.503 6.97-3.468 1.932-.777 3.921-1.523 6.098-1.58 1.022-.027 2.03-.506 3.065-.723 2.055-.43 4.118-.738 6.218-.67 1.972.065 3.95-.028 5.918.244 2.436.34 4.906.483 7.317.944 2.249.43 4.438 1.15 6.572 2.044 1.472.618 2.97 1.178 4.389 1.913 2.797 1.449 5.59 2.912 8.14 4.782 2.452 1.8 4.782 3.76 6.917 5.912 1.699 1.712 3.163 3.65 4.538 5.66Zm-5.702-8.108a37.989 37.989 0 0 0-4.508-3.607c-1.967-1.338-3.802-2.844-5.937-3.96-3.128-1.636-6.208-3.297-9.625-4.32-2.361-.707-4.717-1.333-7.155-1.661-1.746-.235-3.513-.274-5.25-.599-1.608-.3-3.24-.162-4.861-.228-1.565-.062-3.095.11-4.628.294-1.454.176-2.89.496-4.34.726-1.603.253-3.192.531-4.73 1.097-.886.326-1.83.508-2.695.897a161.9 161.9 0 0 0-5.44 2.543 43.282 43.282 0 0 0-3.48 1.927c-.93.572-1.786 1.263-2.687 1.884-1.099.758-2.319 1.379-3.29 2.274-1.252 1.152-2.678 2.086-3.894 3.275-1.073 1.05-2.205 2.043-3.266 3.103-.726.726-1.361 1.556-2.076 2.282-.714.726-1.465 1.427-2.119 2.204-1.209 1.435-2.117 3.097-3.263 4.58-2.088 2.702-3.136 5.894-4.353 9.008-.808 2.065-1.185 4.252-1.73 6.394-.956 3.762-1.333 7.582-1.342 11.448-.006 2.35.134 4.695.291 7.04.108 1.621.188 3.247.634 4.815.425 1.494.881 2.98 1.333 4.467.918 3.019 1.928 5.993 3.237 8.87 1.15 2.526 2.642 4.868 4.139 7.167 1.611 2.473 3.393 4.878 5.37 7.059.28.356.51.713.799 1.012.92.948 1.89 1.848 2.786 2.819.808.875 1.56 1.796 2.73 2.214.584.209 1.034.618 1.47 1.033.391.371.8.723 1.271.975 1.709.913 3.354 1.946 5.195 2.611.56.203 1.166.296 1.684.647 1.294.876 2.79 1.356 4.227 1.898 2.061.778 4.271 1.069 6.444 1.429 3.118.517 6.289.49 9.431.783 2.235.208 4.477.48 6.737.461 1.879-.016 3.751-.138 5.627-.207 1.258-.045 2.353-.701 3.58-.868a42.519 42.519 0 0 0 2.327-.366c2.128-.414 4.105-1.322 6.059-2.226 3.156-1.459 5.953-3.531 8.807-5.48 2.799-1.911 5.16-4.375 7.626-6.688 1.139-1.069 2.157-2.285 3.187-3.478 1.221-1.415 2.057-3.08 3.202-4.534 1.303-1.653 2.31-3.49 3.23-5.359 1.046-2.124 2.023-4.287 2.853-6.511.413-1.106.881-2.195 1.242-3.318.572-1.782.95-3.617 1.349-5.445.466-2.13.676-4.298 1.058-6.438.127-.707-.04-1.393.036-2.082.226-2.038.365-4.07-.015-6.113-.187-1.003-.16-2.056-.418-3.036-.342-1.3-.564-2.625-.935-3.92-.633-2.204-.975-4.484-1.698-6.667-.81-2.444-1.867-4.783-3.105-7.039-.307-.562-.683-1.087-1.007-1.64-.817-1.402-1.562-2.853-2.447-4.21-1.342-2.06-2.76-4.066-4.385-5.927-1.028-1.177-2.145-2.253-3.282-3.309ZM137.47 129.66c-.153.176.024.282.123.405.36.453.713.911 1.068 1.367l-.011.009c.411.53.819 1.063 1.239 1.586.101.126.251.252.416.119.203-.162.018-.256-.089-.378-.533-.609-1.035-1.239-1.431-1.957-.221-.399-.558-.735-.848-1.095-.133-.165-.304-.243-.467-.056ZM135.685 135.173l-1.202-1.355c-.1-.112-.22-.191-.361-.09-.088.062-.06.168.003.242.727.874 1.454 1.75 2.19 2.617.088.104.244.178.369.054.126-.126.063-.251-.069-.345-.409-.29-.61-.758-.93-1.123Z"/>
    <path fill="#3E4242" d="M92.388 53.027c-.004.116.004.233.009.35.046 1.161.105 2.323.136 3.485.124 4.691-.011 9.385.21 14.079.142 2.995.322 5.99.43 8.988.154 4.25.544 8.492.767 12.74.167 3.203.24 6.41.331 9.616.026.907-.04 1.814-.057 2.723-.003.155-.045.339.156.421.117.048.228.018.33-.053.128-.103.12-.251.106-.386-.22-1.987-.053-3.982-.145-5.975-.206-4.482-.372-8.964-.71-13.438-.358-4.722-.514-9.455-.687-14.186-.08-2.176-.274-4.345-.25-6.528.033-2.88-.033-5.761-.09-8.642-.022-1.064.045-2.132-.117-3.192-.02-.134.055-.305-.144-.325-.214-.022-.269.144-.275.323ZM88.182 94.053c.19-1.87.02-3.732-.141-5.59-.146-1.663-.46-3.31-.608-4.972-.165-1.875-.037-3.754.047-5.634.165-3.716-.008-7.434-.083-11.15-.01-.455.028-.932-.16-1.322-.138-.18-.253-.303-.44-.188-.174.108-.201.28-.07.414.191.2.143.44.156.66.05.81.093 1.623.11 2.436.051 2.55.26 5.1.157 7.656-.088 2.206-.234 4.412-.25 6.62-.013 1.698.405 3.363.596 5.047.228 2.005.172 4.02.272 6.03.008.164-.129.434.156.445.271.012.236-.237.258-.452ZM98.462 68.072c-.2.195-.137.395-.06.637.082.26.08.55.082.827.008 2.74-.028 5.48.026 8.22.035 1.828.197 3.654.299 5.482.082 1.485.076 2.98.263 4.45.173 1.356.525 2.688.438 4.07-.04.647-.11 1.294-.155 1.942-.01.132-.03.286.12.374.097.058.176.017.294-.081.035-.08.13-.203.137-.331.047-.9.144-1.807.097-2.704-.09-1.722-.584-3.397-.612-5.132-.038-2.343-.243-4.678-.406-7.014-.139-1.995 0-3.992-.028-5.99-.02-1.412.058-2.827.087-4.243.004-.202.056-.436-.192-.548-.13-.061-.274-.071-.39.041Z"/>
  </g>
</svg>
