<svg width="24" height="24" viewBox="0 0 24 24" xmlns="http://www.w3.org/2000/svg">
    <mask id="mask0_11256_44395" style="mask-type:alpha" maskUnits="userSpaceOnUse" x="0" y="0" width="24" height="24">
        <rect width="24" height="24" />
    </mask>
    <g mask="url(#mask0_11256_44395)">
        <path
            d="M12 21.5C10.3103 21.5 8.92958 21.2575 7.85775 20.7725C6.78592 20.2875 6.25 19.6614 6.25 18.8943C6.25 18.5391 6.38367 18.2051 6.651 17.8923C6.91833 17.5794 7.28792 17.3108 7.75975 17.0865L8.9405 18.1578C8.72633 18.2436 8.50125 18.3506 8.26525 18.4788C8.02942 18.6071 7.86792 18.7423 7.78075 18.8845C7.94608 19.1833 8.43808 19.4439 9.25675 19.6663C10.0752 19.8888 10.9881 20 11.9953 20C13.0023 20 13.9192 19.8888 14.7462 19.6663C15.5731 19.4439 16.0693 19.1833 16.2348 18.8845C16.1501 18.732 15.9793 18.5917 15.7223 18.4635C15.4651 18.3353 15.2212 18.2283 14.9905 18.1423L16.1557 17.0557C16.6672 17.2904 17.0608 17.5642 17.3365 17.877C17.6122 18.1898 17.75 18.5275 17.75 18.89C17.75 19.6585 17.2141 20.2856 16.1423 20.7712C15.0704 21.2571 13.6897 21.5 12 21.5ZM12.025 16.625C13.6813 15.3698 14.9246 14.1266 15.7548 12.8953C16.5849 11.6638 17 10.441 17 9.227C17 7.5015 16.4599 6.199 15.3798 5.3195C14.2996 4.43983 13.1746 4 12.0048 4C10.8349 4 9.70833 4.44008 8.625 5.32025C7.54167 6.20025 7 7.50342 7 9.22975C7 10.3638 7.40992 11.5398 8.22975 12.7578C9.04958 13.9758 10.3147 15.2648 12.025 16.625ZM12 18.5C9.81783 16.8685 8.189 15.284 7.1135 13.7465C6.03783 12.2092 5.5 10.7032 5.5 9.2285C5.5 8.11467 5.6965 7.13917 6.0895 6.302C6.4825 5.46483 6.98983 4.76383 7.6115 4.199C8.23333 3.63433 8.931 3.21 9.7045 2.926C10.4778 2.642 11.2435 2.5 12.0015 2.5C12.7595 2.5 13.5247 2.642 14.297 2.926C15.0695 3.21 15.7667 3.63433 16.3885 4.199C17.0102 4.76383 17.5175 5.46508 17.9105 6.30275C18.3035 7.14042 18.5 8.11517 18.5 9.227C18.5 10.7018 17.9622 12.2081 16.8865 13.7457C15.811 15.2834 14.1822 16.8682 12 18.5ZM12.0048 10.8943C12.5003 10.8943 12.9246 10.7193 13.2777 10.3693C13.6311 10.0193 13.8077 9.59325 13.8077 9.09125C13.8077 8.58942 13.6307 8.16192 13.2768 7.80875C12.9227 7.45542 12.4972 7.27875 12 7.27875C11.5077 7.27875 11.0833 7.45575 10.727 7.80975C10.3705 8.16392 10.1923 8.5895 10.1923 9.0865C10.1923 9.59167 10.3705 10.0193 10.727 10.3693C11.0833 10.7193 11.5093 10.8943 12.0048 10.8943Z" />
    </g>
</svg>