<svg xmlns="http://www.w3.org/2000/svg" fill="none" viewBox="0 0 24 24">
  <!-- <mask id="a" width="24" height="24" x="0" y="0" maskUnits="userSpaceOnUse" style="mask-type:alpha">
    <path fill="#D9D9D9" d="M0 0h24v24H0z"/>
  </mask> -->
  <g mask="url(#a)">
    <path fill="currentColor" d="M6.385 16.75h4.73v-1.5h-4.73v1.5Zm9.73 0h1.5v-1.5h-1.5v1.5Zm-9.73-4h4.73v-1.5h-4.73v1.5Zm9.73 0h1.5v-5.5h-1.5v5.5Zm-9.73-4h4.73v-1.5h-4.73v1.5ZM4.308 20.5c-.505 0-.933-.175-1.283-.525a1.745 1.745 0 0 1-.525-1.283V5.308c0-.505.175-.933.525-1.283.35-.35.778-.525 1.283-.525h15.384c.505 0 .933.175 1.283.525.35.35.525.778.525 1.283v13.384c0 .505-.175.933-.525 1.283-.35.35-.778.525-1.283.525H4.308Zm0-1.5h15.384a.294.294 0 0 0 .212-.096.294.294 0 0 0 .096-.212V5.308a.294.294 0 0 0-.096-.212.294.294 0 0 0-.212-.096H4.308a.294.294 0 0 0-.212.096.294.294 0 0 0-.096.212v13.384c0 .077.032.148.096.212a.294.294 0 0 0 .212.096Z"/>
  </g>
</svg>
