<svg width="16" height="16" viewBox="0 0 16 16" fill="none" xmlns="http://www.w3.org/2000/svg">
<circle cx="8" cy="8" r="7.90625" fill="#F7F8FF"/>
<path d="M11.2589 11.3125H13.1371L13.3438 10.8204L13.3155 10.773C12.9211 10.8014 12.6394 10.8109 12.367 10.8204V7.62146C12.367 6.58982 12.367 5.81376 12.4421 4.6875H2.86287L2.65625 5.17965L2.68438 5.22699C3.07886 5.19857 3.36059 5.18908 3.63297 5.17965V8.37854C3.63297 9.41018 3.63297 10.1862 3.5578 11.3125H4.74115C4.66603 10.1862 4.66603 9.41018 4.66603 8.37854V5.35003H7.48347V8.37854C7.48347 9.41018 7.48347 10.1862 7.40836 11.3125H8.59164C8.51653 10.1862 8.51653 9.41018 8.51653 8.37854V5.35003H11.334V8.37854C11.334 9.41018 11.334 10.1862 11.2589 11.3125Z" fill="#171717"/>
</svg>
