<svg width="24" height="24" viewBox="0 0 24 24" xmlns="http://www.w3.org/2000/svg">
    <mask id="mask0_11256_11235" style="mask-type:alpha" maskUnits="userSpaceOnUse" x="0" y="0" width="24" height="24">
        <rect width="24" height="24" />
    </mask>
    <g mask="url(#mask0_11256_11235)">
        <path
            d="M4.30775 20.5C3.80258 20.5 3.375 20.325 3.025 19.975C2.675 19.625 2.5 19.1974 2.5 18.6923V7.5H4V18.6923C4 18.7692 4.03208 18.8398 4.09625 18.9038C4.16025 18.9679 4.23075 19 4.30775 19H18.5V20.5H4.30775ZM8.30775 16.5C7.80258 16.5 7.375 16.325 7.025 15.975C6.675 15.625 6.5 15.1974 6.5 14.6923V3.5H22.5V14.6923C22.5 15.1974 22.325 15.625 21.975 15.975C21.625 16.325 21.1974 16.5 20.6923 16.5H8.30775ZM8.30775 15H20.6923C20.7693 15 20.8398 14.9679 20.9038 14.9038C20.9679 14.8398 21 14.7692 21 14.6923V5H8V14.6923C8 14.7692 8.03208 14.8398 8.09625 14.9038C8.16025 14.9679 8.23075 15 8.30775 15ZM10 12H14V7H10V12ZM15 12H19V10H15V12ZM15 9H19V7H15V9Z" />
    </g>
</svg>