<svg xmlns="http://www.w3.org/2000/svg" fill="none" viewBox="0 0 32 32">
  <path fill="currentColor" d="M10.4 2.666h11.2a7.739 7.739 0 0 1 7.733 7.733v11.2a7.733 7.733 0 0 1-7.733 7.734H10.4a7.739 7.739 0 0 1-7.733-7.734V10.4A7.733 7.733 0 0 1 10.4 2.666Zm-.267 2.667a4.8 4.8 0 0 0-4.8 4.8v11.733c0 2.653 2.147 4.8 4.8 4.8h11.734a4.8 4.8 0 0 0 4.8-4.8V10.133c0-2.654-2.147-4.8-4.8-4.8H10.133Zm12.867 2a1.667 1.667 0 1 1 0 3.333 1.667 1.667 0 0 1 0-3.333Zm-7 2a6.667 6.667 0 1 1 0 13.333 6.667 6.667 0 0 1 0-13.333Zm0 2.666A4 4 0 1 0 16 20a4 4 0 0 0 0-8Z"/>
</svg>
