<svg xmlns="http://www.w3.org/2000/svg" fill="none" viewBox="0 0 32 32">
  <path stroke="currentColor" stroke-linecap="round" stroke-linejoin="round" stroke-width="2.5" d="M14 13.21v5.579a.546.546 0 0 0 .55.544.56.56 0 0 0 .303-.091l4.234-2.765a.54.54 0 0 0 .004-.904l-4.234-2.814a.553.553 0 0 0-.764.147.538.538 0 0 0-.093.304Z"/>
  <path stroke="currentColor" stroke-linecap="round" stroke-linejoin="round" stroke-width="2.5" d="M2.667 16c0-4.4 0-6.6 1.952-7.967C6.573 6.666 9.715 6.666 16 6.666s9.428 0 11.38 1.367c1.953 1.366 1.953 3.566 1.953 7.966s0 6.6-1.953 7.967c-1.95 1.367-5.095 1.367-11.38 1.367-6.285 0-9.428 0-11.381-1.367-1.952-1.367-1.952-3.567-1.952-7.967Z"/>
</svg>
