<svg xmlns="http://www.w3.org/2000/svg" fill="none" viewBox="0 0 153 126">
  <path fill="currentColor" d="M103.831 43.272s4.781-19.744 0-26.438C99.05 10.152 97.149 5.697 86.636 2.507 76.123-.682 79.953-.046 72.309.28 64.659.606 58.29 4.74 58.29 6.974c0 0-4.781.315-6.682 2.227-1.913 1.913-5.096 10.823-5.096 13.05 0 2.228 1.591 17.213 3.183 20.39l-1.895.642c-1.598 18.467 6.356 20.7 6.356 20.7 2.869 17.201 5.737 9.878 5.737 14.333 0 4.454-2.868 2.868-2.868 2.868s-2.543 7.003-8.91 9.552c-6.368 2.542-41.715 16.233-44.59 19.102-2.88 2.869-2.554 16.245-2.554 16.245H152.55s.338-13.371-2.542-16.245c-2.869-2.869-38.222-16.56-44.59-19.102-6.367-2.549-8.91-9.552-8.91-9.552s-2.868 1.587-2.868-2.868c0-4.456 2.868 2.868 5.737-14.333 0 0 7.948-2.233 6.356-20.7h-1.912l.011-.011Z"/>
</svg>
