<svg width="24" height="24" viewBox="0 0 24 24" xmlns="http://www.w3.org/2000/svg">
    <mask id="mask0_11256_11229" style="mask-type:alpha" maskUnits="userSpaceOnUse" x="0" y="0" width="24" height="24">
        <rect width="24" height="24" />
    </mask>
    <g mask="url(#mask0_11256_11229)">
        <path
            d="M6.09972 11.4421L5.89597 10.2499C5.6383 10.1729 5.3963 10.0741 5.16997 9.95362C4.94364 9.83312 4.72922 9.68053 4.52672 9.49587L3.37472 9.90762L2.60547 8.63062L3.55372 7.82287C3.48189 7.55503 3.44597 7.2807 3.44597 6.99987C3.44597 6.71903 3.48189 6.4447 3.55372 6.17687L2.60547 5.36912L3.37472 4.09212L4.52672 4.50387C4.72922 4.3192 4.94364 4.16662 5.16997 4.04612C5.3963 3.92562 5.6383 3.82687 5.89597 3.74987L6.09972 2.55762H7.59972L7.80347 3.74987C8.06113 3.82687 8.30314 3.92562 8.52947 4.04612C8.7558 4.16662 8.97022 4.3192 9.17272 4.50387L10.3247 4.09212L11.094 5.36912L10.1457 6.17687C10.2176 6.4447 10.2535 6.71903 10.2535 6.99987C10.2535 7.2807 10.2176 7.55503 10.1457 7.82287L11.094 8.63062L10.3247 9.90762L9.17272 9.49587C8.97022 9.68053 8.7558 9.83312 8.52947 9.95362C8.30314 10.0741 8.06113 10.1729 7.80347 10.2499L7.59972 11.4421H6.09972ZM6.84972 9.07687C7.42539 9.07687 7.91547 8.87462 8.31997 8.47012C8.72447 8.06562 8.92672 7.57553 8.92672 6.99987C8.92672 6.4242 8.72447 5.93412 8.31997 5.52962C7.91547 5.12512 7.42539 4.92287 6.84972 4.92287C6.27405 4.92287 5.78397 5.12512 5.37947 5.52962C4.97497 5.93412 4.77272 6.4242 4.77272 6.99987C4.77272 7.57553 4.97497 8.06562 5.37947 8.47012C5.78397 8.87462 6.27405 9.07687 6.84972 9.07687ZM15.2037 22.0094L14.8882 20.4286C14.5216 20.3543 14.1806 20.2255 13.8652 20.0421C13.5497 19.8588 13.2657 19.6306 13.0132 19.3576L11.523 19.8729L10.5172 18.1651L11.7325 17.1306C11.6221 16.7601 11.567 16.3832 11.567 15.9999C11.567 15.6165 11.6221 15.2396 11.7325 14.8691L10.5172 13.8346L11.523 12.1269L13.0132 12.6421C13.2657 12.3691 13.5497 12.141 13.8652 11.9576C14.1806 11.7743 14.5216 11.6455 14.8882 11.5711L15.2037 9.99037H17.1957L17.5112 11.5711C17.8779 11.6455 18.2189 11.7743 18.5342 11.9576C18.8497 12.141 19.1337 12.3691 19.3862 12.6421L20.8765 12.1269L21.8822 13.8346L20.667 14.8691C20.7773 15.2396 20.8325 15.6165 20.8325 15.9999C20.8325 16.3832 20.7773 16.7601 20.667 17.1306L21.8822 18.1651L20.8765 19.8729L19.3862 19.3576C19.1337 19.6306 18.8497 19.8588 18.5342 20.0421C18.2189 20.2255 17.8779 20.3543 17.5112 20.4286L17.1957 22.0094H15.2037ZM16.1997 18.9999C17.0331 18.9999 17.7414 18.7082 18.3247 18.1249C18.9081 17.5415 19.1997 16.8332 19.1997 15.9999C19.1997 15.1665 18.9081 14.4582 18.3247 13.8749C17.7414 13.2915 17.0331 12.9999 16.1997 12.9999C15.3664 12.9999 14.6581 13.2915 14.0747 13.8749C13.4914 14.4582 13.1997 15.1665 13.1997 15.9999C13.1997 16.8332 13.4914 17.5415 14.0747 18.1249C14.6581 18.7082 15.3664 18.9999 16.1997 18.9999Z" />
    </g>
</svg>