<svg width="24" height="24" viewBox="0 0 24 24" xmlns="http://www.w3.org/2000/svg">
    <mask id="mask0_11256_11231" style="mask-type:alpha" maskUnits="userSpaceOnUse" x="0" y="0" width="24" height="24">
        <rect width="24" height="24" />
    </mask>
    <g mask="url(#mask0_11256_11231)">
        <path
            d="M15.7193 21.6345L11.8155 17.7308L12.8693 16.677L15.7193 19.527L21.3885 13.8577L22.4423 14.9115L15.7193 21.6345ZM12 11L19.8463 6H4.15375L12 11ZM12 12.5577L4 7.44225V17.6923C4 17.7821 4.02883 17.8558 4.0865 17.9135C4.14417 17.9712 4.21792 18 4.30775 18H9.275L10.775 19.5H4.30775C3.80258 19.5 3.375 19.325 3.025 18.975C2.675 18.625 2.5 18.1974 2.5 17.6923V6.30775C2.5 5.80258 2.675 5.375 3.025 5.025C3.375 4.675 3.80258 4.5 4.30775 4.5H19.6923C20.1974 4.5 20.625 4.675 20.975 5.025C21.325 5.375 21.5 5.80258 21.5 6.30775V10.9462L20 12.4463V7.44225L12 12.5577Z" />
    </g>
</svg>