<svg width="24" height="24" viewBox="0 0 24 24" xmlns="http://www.w3.org/2000/svg">
    <mask id="mask0_11256_11234" style="mask-type:alpha" maskUnits="userSpaceOnUse" x="0" y="0" width="24" height="24">
        <rect width="24" height="24" />
    </mask>
    <g mask="url(#mask0_11256_11234)">
        <path
            d="M4.5 19.3079V17.0846C4.5 16.595 4.633 16.1415 4.899 15.7241C5.165 15.3068 5.5205 14.986 5.9655 14.7616C6.95383 14.2771 7.95092 13.9137 8.95675 13.6714C9.96258 13.429 10.977 13.3079 12 13.3079C12.5333 13.3079 13.0632 13.3405 13.5895 13.4059C14.1157 13.4712 14.6435 13.5712 15.173 13.7059L13.9212 14.9731C13.5927 14.926 13.2725 14.8866 12.9605 14.8551C12.6485 14.8236 12.3283 14.8079 12 14.8079C11.0883 14.8079 10.1848 14.9171 9.28925 15.1356C8.39392 15.3543 7.51542 15.6758 6.65375 16.1001C6.45258 16.2091 6.29333 16.3498 6.176 16.5221C6.05867 16.6946 6 16.8821 6 17.0846V17.8079H11.923V19.3079H4.5ZM14.1155 20.5001V17.8579L19.5443 12.4539C19.6686 12.3295 19.8028 12.242 19.947 12.1914C20.0912 12.1409 20.2353 12.1156 20.3795 12.1156C20.5367 12.1156 20.6888 12.145 20.8358 12.2039C20.9827 12.2629 21.1163 12.3514 21.2365 12.4694L22.1615 13.4039C22.2692 13.5284 22.3525 13.663 22.4115 13.8079C22.4705 13.9527 22.5 14.0975 22.5 14.2424C22.5 14.3872 22.4731 14.5346 22.4193 14.6846C22.3654 14.8346 22.2795 14.9718 22.1615 15.0961L16.7578 20.5001H14.1155ZM15.3077 19.3079H16.2578L19.5038 16.0461L19.0443 15.5711L18.5788 15.1021L15.3077 18.3579V19.3079ZM19.0443 15.5711L18.5788 15.1021L19.5038 16.0461L19.0443 15.5711ZM12 11.6924C11.0375 11.6924 10.2136 11.3497 9.52825 10.6644C8.84275 9.97888 8.5 9.15488 8.5 8.19238C8.5 7.22988 8.84275 6.40597 9.52825 5.72063C10.2136 5.03513 11.0375 4.69238 12 4.69238C12.9625 4.69238 13.7864 5.03513 14.4718 5.72063C15.1573 6.40597 15.5 7.22988 15.5 8.19238C15.5 9.15488 15.1573 9.97888 14.4718 10.6644C13.7864 11.3497 12.9625 11.6924 12 11.6924ZM12 10.1924C12.55 10.1924 13.0208 9.99655 13.4125 9.60488C13.8042 9.21322 14 8.74238 14 8.19238C14 7.64238 13.8042 7.17155 13.4125 6.77988C13.0208 6.38822 12.55 6.19238 12 6.19238C11.45 6.19238 10.9792 6.38822 10.5875 6.77988C10.1958 7.17155 10 7.64238 10 8.19238C10 8.74238 10.1958 9.21322 10.5875 9.60488C10.9792 9.99655 11.45 10.1924 12 10.1924Z" />
    </g>
</svg>