<svg width="24" height="24" viewBox="0 0 24 24" xmlns="http://www.w3.org/2000/svg">
    <mask id="mask0_11256_11232" style="mask-type:alpha" maskUnits="userSpaceOnUse" x="0" y="0" width="24" height="24">
        <rect width="24" height="24" />
    </mask>
    <g mask="url(#mask0_11256_11232)">
        <path
            d="M16.9431 14.3079C16.3201 14.3079 15.7893 14.0886 15.3508 13.6501C14.9123 13.2116 14.6931 12.6809 14.6931 12.0579C14.6931 11.4347 14.9123 10.9039 15.3508 10.4654C15.7893 10.027 16.3201 9.80788 16.9431 9.80788C17.5663 9.80788 18.097 10.027 18.5353 10.4654C18.9738 10.9039 19.1931 11.4347 19.1931 12.0579C19.1931 12.6809 18.9738 13.2116 18.5353 13.6501C18.097 14.0886 17.5663 14.3079 16.9431 14.3079ZM12.1931 19.3079V18.1579C12.1931 17.8027 12.2839 17.4766 12.4656 17.1796C12.6473 16.8826 12.9052 16.669 13.2393 16.5386C13.821 16.295 14.4228 16.1122 15.0448 15.9904C15.6668 15.8687 16.2996 15.8079 16.9431 15.8079C17.5738 15.8079 18.2003 15.8687 18.8228 15.9904C19.4453 16.1122 20.0534 16.295 20.6471 16.5386C20.9813 16.669 21.2391 16.8826 21.4206 17.1796C21.6023 17.4766 21.6931 17.8027 21.6931 18.1579V19.3079H12.1931ZM9.80859 11.6924C8.84609 11.6924 8.02209 11.3497 7.33659 10.6644C6.65126 9.97888 6.30859 9.15488 6.30859 8.19238C6.30859 7.22988 6.65126 6.40597 7.33659 5.72063C8.02209 5.03513 8.84609 4.69238 9.80859 4.69238C10.7711 4.69238 11.595 5.03513 12.2803 5.72063C12.9658 6.40597 13.3086 7.22988 13.3086 8.19238C13.3086 9.15488 12.9658 9.97888 12.2803 10.6644C11.595 11.3497 10.7711 11.6924 9.80859 11.6924ZM2.30859 19.3079V17.0846C2.30859 16.5851 2.43901 16.126 2.69984 15.7071C2.96084 15.2883 3.31884 14.9731 3.77384 14.7616C4.71618 14.2873 5.69426 13.9264 6.70809 13.6789C7.72193 13.4315 8.75543 13.3079 9.80859 13.3079C10.3021 13.3079 10.7957 13.3435 11.2893 13.4146C11.7828 13.4858 12.2764 13.572 12.7701 13.6731C12.5573 13.8891 12.3444 14.1052 12.1316 14.3214L11.4931 14.9694C11.2124 14.902 10.9317 14.8583 10.6508 14.8381C10.37 14.818 10.0893 14.8079 9.80859 14.8079C8.87393 14.8079 7.95534 14.9149 7.05284 15.1289C6.15018 15.343 5.28668 15.6668 4.46234 16.1001C4.27001 16.2026 4.11293 16.3369 3.99109 16.5029C3.86943 16.669 3.80859 16.863 3.80859 17.0846V17.8079H9.80859V19.3079H2.30859ZM9.80859 10.1924C10.3586 10.1924 10.8294 9.99655 11.2211 9.60488C11.6128 9.21322 11.8086 8.74238 11.8086 8.19238C11.8086 7.64238 11.6128 7.17155 11.2211 6.77988C10.8294 6.38822 10.3586 6.19238 9.80859 6.19238C9.25859 6.19238 8.78776 6.38822 8.39609 6.77988C8.00443 7.17155 7.80859 7.64238 7.80859 8.19238C7.80859 8.74238 8.00443 9.21322 8.39609 9.60488C8.78776 9.99655 9.25859 10.1924 9.80859 10.1924Z" />
    </g>
</svg>